<svg id="fi_17836274" enable-background="new 0 0 100 100" viewBox="0 0 100 100" xmlns="http://www.w3.org/2000/svg" xmlns:xlink="http://www.w3.org/1999/xlink"><linearGradient id="SVGID_1_" gradientUnits="userSpaceOnUse" x1="-.051" x2="91.965" y1="-4.851" y2="95.99"><stop offset="0" stop-color="#97e0ff"></stop><stop offset="1" stop-color="#1075ff"></stop></linearGradient><path clip-rule="evenodd" d="m36.8818398 9.1584129c6.4923401-8.8778801 19.7438736-8.8778801 26.2361603 0 1.4896049 2.0371771 3.9914207 3.0733871 6.4851723 2.6863098 10.868454-1.6868649 20.2387695 7.6834469 18.5520401 18.5518112-.3871155 2.4939346.6488571 4.9955215 2.6861267 6.4853058 8.878212 6.4923401 8.878212 19.7438736 0 26.2361603-2.0372696 1.4895973-3.0732422 3.9914207-2.6861267 6.4851723 1.6867294 10.868454-7.6835861 20.2387695-18.5520401 18.5520401-2.4937515-.3871155-4.9955673.6488495-6.4851723 2.6861267-6.4922867 8.878212-19.7438202 8.878212-26.2361603 0-1.4897842-2.0372772-3.9913712-3.0732422-6.4853058-2.6861267-10.8683662 1.6867294-20.238678-7.6835861-18.5518131-18.5520401.3870773-2.4937515-.6491337-4.995575-2.6863108-6.4851723-8.8778801-6.4922867-8.8778801-19.7438202 0-26.2361603 2.0371771-1.4897842 3.0733881-3.9913712 2.6863108-6.4853058-1.6868649-10.8683643 7.6834468-20.238676 18.5518131-18.5518112 2.4939346.3870774 4.9955215-.6491327 6.4853058-2.6863098zm34.4683036 30.9525986c1.7722168-1.9337196 1.6415939-4.9383812-.2921295-6.7110291-1.9337158-1.7726955-4.9385681-1.642025-6.7112656.29179l-17.8024215 19.0935708-5.1699486-4.5510254c-1.9321518-1.7745972-4.9369545-1.646347-6.7114105.2854767-1.7744522 1.9322929-1.6465836 4.9371452.2856178 6.7117424l8.6716461 7.7667656c.9286194.8526268 2.1579208 1.3014946 3.417141 1.2473488 1.2592278-.0541458 2.4457741-.6070518 3.297451-1.5361481z" fill="url(#SVGID_1_)" fill-rule="evenodd"></path></svg>